# xmcd
#
# Track frame offsets:
#	150
#	13010
#	26332
#	38400
#	49052
#	63735
#	73555
#	87560
#	98467
#	110485
#	119800
#	130037
#	140110
#	150145
#	159430
#	170475
#	181190
#	194140
#	207732
#	221397
#	235322
#	248750
#	258000
#	270832
#	281875
#	299245
#	312400
#	324500
#	340305
#
# Disc length: 4725 seconds
#
# Revision: 0
# Processed by: cddbd v1.4PL0 Copyright (c) Steve Scherf et al.
# Submitted via: dBpowerAMP V4.0
#
DISCID=b212731d
DTITLE=Clooney, Rosemary - Memories Of You
DYEAR=1900
DGENRE=
TTITLE0=Dennis The Menace (with Jimmy Boyd)
TTITLE1=All The Pretty Little Horses
TTITLE2=The Teddy Bear's Picnic
TTITLE3=Little Red Monkey
TTITLE4=Little Tink-A-Toy Man
TTITLE5=Little Joe Worm (Son Of Glow Worm)
TTITLE6=The Kitty Kats' Party
TTITLE7=(Ting-A-Ling-Ling) Here Comes The Ice Cream Man
TTITLE8=Betsy, My Paper Doll
TTITLE9=Shoo, Turkey, Shoo
TTITLE10=Peachy Peachy
TTITLE11=Shaun, Shaun, The Leprechaun
TTITLE12=The Little Shoemaker
TTITLE13=Peter Cottontail
TTITLE14=Easter Parade
TTITLE15=The Key To My Heart
TTITLE16=Mommy, Can I Keep The Kitten? (with Gail Cloney)
TTITLE17=Suzy Snowflake
TTITLE18=Little Red Riding Hood's Christmas Tree
TTITLE19=(Let's Give) A Christmas Present To Santa Claus
TTITLE20=C-H-R-I-S-T-M-A-S (1950)
TTITLE21=He'll Be Comin' Down The Chimney (with Gail Clooney)
TTITLE22=The Night Before Christmas Song (with Gene Autry)
TTITLE23=Look Out The Window (The Winter Song) (with Gene Autry)
TTITLE24=Winder Wonderland
TTITLE25=Happy Christmas, Little Friend
TTITLE26=Snow
TTITLE27=White Christmas
TTITLE28=C-H-R-I-S-T-M-A-S (1953)
EXTD=
EXTT0=
EXTT1=
EXTT2=
EXTT3=
EXTT4=
EXTT5=
EXTT6=
EXTT7=
EXTT8=
EXTT9=
EXTT10=
EXTT11=
EXTT12=
EXTT13=
EXTT14=
EXTT15=
EXTT16=
EXTT17=
EXTT18=
EXTT19=
EXTT20=
EXTT21=
EXTT22=
EXTT23=
EXTT24=
EXTT25=
EXTT26=
EXTT27=
EXTT28=
PLAYORDER=
